<?xml version="1.0" encoding="UTF-8" standalone="no"?>
<svg width="90px" height="82px" viewBox="0 0 90 82" version="1.1" xmlns="http://www.w3.org/2000/svg" xmlns:xlink="http://www.w3.org/1999/xlink">
    <!-- Generator: Sketch 43.2 (39069) - http://www.bohemiancoding.com/sketch -->
    <title>diagnostics</title>
    <desc>Created with Sketch.</desc>
    <defs></defs>
    <g id="Page-1" stroke="none" stroke-width="1" fill="none" fill-rule="evenodd">
        <g id="diagnostics" fill-rule="nonzero" fill="#484848">
            <path d="M87.985,68.558 L2.015,68.558 C0.903,68.558 0,67.654 0,66.541 L0,2.017 C0,0.903 0.903,0 2.015,0 L87.985,0 C89.097,0 90,0.903 90,2.017 L90,66.541 C90,67.654 89.097,68.558 87.985,68.558 Z M4.03,64.525 L85.97,64.525 L85.97,4.033 L4.03,4.033 L4.03,64.525 Z" id="Shape"></path>
            <path d="M54.403,82 L35.597,82 C34.485,82 33.582,81.097 33.582,79.983 L33.582,66.541 C33.582,65.428 34.485,64.525 35.597,64.525 L54.403,64.525 C55.515,64.525 56.418,65.427 56.418,66.541 L56.418,79.983 C56.418,81.097 55.515,82 54.403,82 Z M37.612,77.967 L52.388,77.967 L52.388,68.558 L37.612,68.558 L37.612,77.967 Z" id="Shape"></path>
            <rect id="Rectangle-path" x="11.418" y="77.967" width="67.164" height="4.033"></rect>
            <path d="M78.582,9.41 L11.418,9.41 C10.306,9.41 9.403,10.312 9.403,11.426 L9.403,57.131 C9.403,58.244 10.306,59.148 11.418,59.148 L78.582,59.148 C79.694,59.148 80.597,58.245 80.597,57.131 L80.597,11.426 C80.597,10.313 79.694,9.41 78.582,9.41 Z M61.12,34.423 L54.695,34.423 C53.897,34.423 53.173,33.951 52.851,33.219 L52.25,31.856 L47.472,46.42 C47.199,47.252 46.425,47.809 45.556,47.809 C45.53,47.809 45.503,47.809 45.475,47.807 C44.575,47.77 43.809,47.141 43.596,46.266 L39.422,28.971 L37.512,33.233 C37.187,33.958 36.465,34.423 35.673,34.423 L28.88,34.423 L28.88,30.391 L34.369,30.391 L38.158,21.941 C38.51,21.156 39.302,20.653 40.183,20.759 C41.041,20.838 41.752,21.455 41.957,22.292 L45.853,38.43 L50.061,25.6 C50.324,24.806 51.045,24.256 51.88,24.215 C52.695,24.164 53.485,24.654 53.821,25.416 L56.009,30.391 L61.12,30.391 L61.12,34.423 Z" id="Shape"></path>
        </g>
    </g>
</svg>
