<?xml version="1.0" encoding="UTF-8" standalone="no"?>
<svg width="98px" height="66px" viewBox="0 0 98 66" version="1.1" xmlns="http://www.w3.org/2000/svg" xmlns:xlink="http://www.w3.org/1999/xlink">
    <!-- Generator: Sketch 43.2 (39069) - http://www.bohemiancoding.com/sketch -->
    <title>fabrication</title>
    <desc>Created with Sketch.</desc>
    <defs></defs>
    <g id="Page-1" stroke="none" stroke-width="1" fill="none" fill-rule="evenodd">
        <g id="fabrication" fill-rule="nonzero" fill="#FFFFFF">
            <path d="M96.554,9.082 C92.972,1.792 85.043,1.152 80.695,0.385 C73.149,-0.765 63.43,1.281 61.256,2.431 C59.465,3.071 59.338,4.094 57.803,5.244 C56.78,6.14 29.41,20.464 25.063,22.511 C18.157,25.963 19.18,33.893 19.18,33.893 C19.18,33.893 7.03,41.055 3.065,43.357 C-0.9,47.321 1.401,53.844 1.401,53.844 C2.169,55.379 3.447,57.809 6.644,60.494 C14.318,65.354 18.538,59.216 19.689,57.681 C20.712,60.367 24.677,63.82 26.979,65.226 C33.885,68.168 38.618,61.774 38.618,61.774 L48.722,53.844 C48.722,53.844 56.011,53.844 58.442,53.46 C64.964,51.67 67.778,46.426 67.778,46.426 C67.778,46.426 88.113,28.777 90.032,26.987 C95.659,23.15 96.681,20.465 96.681,20.465 C98.982,16.371 97.832,12.534 96.554,9.082 Z M15.198,60.066 C12.09,61.959 7.312,59.791 4.527,55.22 C1.742,50.649 2.004,45.408 5.112,43.516 C8.219,41.62 12.998,43.789 15.783,48.359 C18.568,52.931 18.306,58.168 15.198,60.066 Z M34.458,63.64 C31.248,65.595 26.38,63.466 23.584,58.879 C20.79,54.295 21.127,48.991 24.338,47.035 C27.549,45.076 32.418,47.208 35.213,51.791 C38.008,56.379 37.669,61.68 34.458,63.64 Z M16.301,47.001 L15.917,46.555 L37.147,33.061 L37.466,33.446 L16.301,47.001 Z M27.491,29.097 C27.491,29.097 36.06,21.551 42.518,32.55 C41.879,33.126 40.728,33.957 40.728,33.957 C40.728,33.957 37.083,25.195 27.491,29.097 Z M37.979,58.704 C37.979,58.704 38.491,57.36 37.787,54.42 L57.61,39.072 C57.61,39.072 58.249,40.862 57.546,42.844 C56.65,43.741 37.979,58.704 37.979,58.704 Z M56.715,46.874 C57.93,45.275 62.023,39.712 57.674,34.532 C56.843,33.253 53.518,28.074 46.1,30.823 C46.1,30.823 53.646,24.364 59.72,33.828 C60.424,35.044 64.708,41.566 56.715,46.874 Z M63.94,29.544 L63.556,28.841 L92.78,6.779 C92.78,6.779 93.292,7.355 93.292,7.419 C92.717,7.931 63.94,29.544 63.94,29.544 Z M96.361,17.778 C95.53,18.481 68.864,40.479 68.161,42.013 C68.417,39.904 68.225,37.089 67.521,35.683 C67.521,35.683 92.844,16.179 96.489,13.557 C96.745,15.221 97.001,15.092 96.361,17.778 Z" id="Shape"></path>
            <polyline id="Shape" points="37.467 33.445 37.147 33.061 15.917 46.555 16.301 47.001"></polyline>
            <path d="M63.557,28.841 L63.941,29.544 C63.941,29.544 92.717,7.931 93.293,7.419 C93.293,7.356 92.781,6.779 92.781,6.779" id="Shape"></path>
        </g>
    </g>
</svg>