<svg xmlns="http://www.w3.org/2000/svg" xmlns:xlink="http://www.w3.org/1999/xlink" version="1.1" x="0px" y="0px" viewBox="0 0 100 125" enable-background="new 0 0 100 100" xml:space="preserve"><g><path d="M97.554,27.082c-3.582-7.29-11.511-7.93-15.859-8.697c-7.546-1.15-17.265,0.896-19.439,2.046   c-1.791,0.64-1.918,1.663-3.453,2.813c-1.023,0.896-28.393,15.22-32.74,17.267c-6.906,3.452-5.883,11.382-5.883,11.382   s-12.15,7.162-16.115,9.464C0.1,65.321,2.401,71.844,2.401,71.844c0.768,1.535,2.046,3.965,5.243,6.65   c7.674,4.86,11.894-1.278,13.045-2.813c1.023,2.686,4.988,6.139,7.29,7.545c6.906,2.942,11.639-3.452,11.639-3.452l10.104-7.93   c0,0,7.289,0,9.72-0.384c6.522-1.79,9.336-7.034,9.336-7.034s20.335-17.649,22.254-19.439c5.627-3.837,6.649-6.522,6.649-6.522   C99.982,34.371,98.832,30.534,97.554,27.082z M16.198,78.066c-3.108,1.893-7.886-0.275-10.671-4.846s-2.523-9.812,0.585-11.704   c3.107-1.896,7.886,0.273,10.671,4.843C19.568,70.931,19.306,76.168,16.198,78.066z M35.458,81.64   c-3.21,1.955-8.078-0.174-10.874-4.761c-2.794-4.584-2.457-9.888,0.754-11.844c3.211-1.959,8.08,0.173,10.875,4.756   C39.008,74.379,38.669,79.68,35.458,81.64z M17.301,65.001l-0.384-0.446l21.23-13.494l0.319,0.385L17.301,65.001z M28.491,47.097   c0,0,8.569-7.546,15.027,3.453c-0.639,0.576-1.79,1.407-1.79,1.407S38.083,43.195,28.491,47.097z M38.979,76.704   c0,0,0.512-1.344-0.192-4.284L58.61,57.072c0,0,0.639,1.79-0.064,3.772C57.65,61.741,38.979,76.704,38.979,76.704z M57.715,64.874   c1.215-1.599,5.308-7.162,0.959-12.342c-0.831-1.279-4.156-6.458-11.574-3.709c0,0,7.546-6.459,13.62,3.005   C61.424,53.044,65.708,59.566,57.715,64.874z M64.94,47.544l-0.384-0.703L93.78,24.779c0,0,0.512,0.576,0.512,0.64   C93.717,25.931,64.94,47.544,64.94,47.544z M97.361,35.778c-0.831,0.703-27.497,22.701-28.2,24.235   c0.256-2.109,0.064-4.924-0.64-6.33c0,0,25.323-19.504,28.968-22.126C97.745,33.221,98.001,33.092,97.361,35.778z"/><polyline fill="#000000" points="38.467,51.445 38.147,51.061 16.917,64.555 17.301,65.001  "/><path fill="#000000" d="M64.557,46.841l0.384,0.703c0,0,28.776-21.613,29.352-22.125c0-0.063-0.512-0.64-0.512-0.64"/></g></svg>
