<?xml version="1.0" encoding="UTF-8" standalone="no"?>
<svg width="439px" height="459px" viewBox="0 0 439 459" version="1.1" xmlns="http://www.w3.org/2000/svg" xmlns:xlink="http://www.w3.org/1999/xlink">
    <!-- Generator: Sketch 40.1 (33804) - http://www.bohemiancoding.com/sketch -->
    <title>Slice 1</title>
    <desc>Created with Sketch.</desc>
    <defs></defs>
    <g id="Page-1" stroke="none" stroke-width="1" fill="none" fill-rule="evenodd">
        <g id="JVN---Front">
            <path d="M117.508,347.235 C113.81,351.997 107.284,352.628 102.92,348.687 C98.562,344.73 98.004,337.657 101.688,332.896 C105.371,328.14 111.907,327.484 116.276,331.445 C120.634,335.396 121.191,342.464 117.508,347.235 L117.508,347.235 Z M303.105,324.442 C307.429,319.77 318.226,318.577 323.583,318.846 C316.107,314.969 303.284,306.176 298.395,300.922 L235.079,237.502 C248.033,224.453 257.424,214.938 259.556,212.65 C265.063,206.736 274.884,203.048 279.983,201.502 C285.361,199.877 289.626,200.543 309.905,197.232 C322.946,195.075 329.001,190.121 331.834,175.234 C334.249,162.476 333.633,148.539 329.904,139.881 C329.239,138.32 328.136,138.146 327.261,139.627 L312.777,163.211 C311.535,165.219 309.03,165.776 307.162,164.458 L283.711,147.163 C283.284,146.431 283.175,145.318 283.394,144.508 C283.741,143.196 284.983,142.49 286.207,142.793 C287.042,142.997 287.27,142.405 287.728,141.69 C288.016,141.232 299.885,121.321 300.919,119.389 C301.554,118.181 300.858,117.838 299.308,117.723 C288.672,117.167 270.779,123.41 263.592,133.981 C263.552,134.045 263.602,134.15 263.672,134.269 L258.244,130.765 C256.901,129.672 255.918,129.881 256.018,132.157 C256.127,134.433 254.784,148.281 254.705,149.508 C254.705,149.508 251.673,165.388 250.4,172.953 C248.811,182.292 244.894,187.417 240.072,192.938 C238.027,195.28 228.394,204.639 215.034,217.424 L174.408,176.73 C166.157,167.854 168.116,157.182 163.751,142.838 C164.005,137.266 162.732,132.644 160.242,129.045 C151.724,116.774 130.376,115.074 118.552,117.768 C116.847,118.155 115.296,119.513 114.034,121.69 L134.377,131.75 C138.791,134.101 141.952,137.217 140.068,144.592 C138.364,151.173 134.283,158.604 128.651,163.733 C122.2,169.623 118.9,169.091 112.419,165.304 L95.028,155.015 C93.368,157.476 93.218,159.076 93.487,160.731 C95.271,172.123 105.351,187.098 118.512,190.766 C121.996,191.741 125.714,191.84 129.556,190.96 C128.871,191.149 128.185,191.502 127.519,191.626 C142.047,193.172 146.698,188.063 154.761,196.746 L194.715,236.791 C153.81,275.664 100.009,326.27 98.134,328.328 L98.174,328.368 C97.96,328.607 97.756,328.855 97.563,329.124 C91.932,336.4 92.761,347.166 99.441,353.21 C106.101,359.253 116.067,358.265 121.703,350.982 C123.745,349.107 175.657,297.21 215.284,257.408 L279.169,321.439 C284.059,326.708 292.359,336.018 295.988,344.044 C295.71,338.289 298.781,329.1 303.105,324.442 L303.105,324.442 Z" id="Fill-3" fill="#AE3F2C"></path>
            <path d="M327.629,345.659 C324.965,345.516 322.4,348.298 322.559,351.142 C320.421,349.576 316.992,350.695 315.789,353.354 C314.735,350.789 311.366,349.949 309.14,351.684 C309.447,348.806 306.873,347.116 304.189,347.483 C305.789,345.068 304.994,341.44 302.608,340.327 C305.063,339.01 306.077,335.337 304.617,333.021 C307.262,333.189 309.825,330.416 309.676,327.553 C311.813,329.124 315.242,328.011 316.445,325.356 C317.489,327.921 320.858,328.756 323.096,327.026 C322.777,329.889 325.372,331.589 328.037,331.221 C326.445,333.642 327.241,337.255 329.637,338.379 C327.172,339.671 326.157,343.368 327.629,345.659 L327.629,345.659 Z M329.051,325.724 C322.51,318.716 311.366,319.332 304.169,327.115 C296.972,334.879 296.743,346.568 303.284,353.577 C309.825,360.596 320.858,359.373 328.056,351.59 C335.253,343.815 335.591,332.731 329.051,325.724 L329.051,325.724 Z" id="Fill-4" fill="#AE3F2C"></path>
            <path d="M29.291,190.95 L41.418,190.95 L41.418,253.804 C41.418,278.754 29.152,286.424 12.984,286.424 C8.521,286.424 3.087,285.444 0.02,284.197 L1.83,274.302 C4.345,275.276 7.964,276.11 12.009,276.11 C22.879,276.11 29.291,271.229 29.291,252.835 L29.291,190.95" id="Fill-5" fill="#FFFFFF"></path>
            <path d="M205.402,94.507 L174.736,0.569 L187.838,0.569 L202.475,46.837 C206.516,59.521 210,70.958 212.51,81.967 L212.788,81.967 C215.438,71.098 219.339,59.248 223.521,46.977 L239.406,0.569 L252.369,0.569 L218.782,94.507 L205.402,94.507" id="Fill-6" fill="#FFFFFF"></path>
            <path d="M368.385,282.194 L368.385,188.261 L381.626,188.261 L411.735,235.783 C418.704,246.796 424.131,256.687 428.595,266.31 L428.873,266.17 C427.76,253.626 427.48,242.198 427.48,227.562 L427.48,188.261 L438.908,188.261 L438.908,282.194 L426.646,282.194 L396.814,234.529 C390.264,224.082 383.991,213.346 379.26,203.172 L378.833,203.316 C379.539,215.156 379.816,226.448 379.816,242.054 L379.816,282.194 L368.385,282.194" id="Fill-7" fill="#FFFFFF"></path>
            <path d="M98.194,411.501 L109.108,411.501 L109.108,424.542 C107.936,425.527 106.534,426.233 104.903,426.68 C103.273,427.127 101.663,427.347 100.078,427.347 C98.208,427.347 96.474,427.058 94.869,426.471 C93.268,425.885 91.882,424.971 90.708,423.737 C89.541,422.485 88.616,420.91 87.95,418.986 C87.279,417.063 86.946,414.771 86.946,412.127 C86.946,409.373 87.344,407.027 88.139,405.079 C88.929,403.141 89.978,401.569 91.275,400.356 C92.572,399.149 94.028,398.261 95.644,397.723 C97.26,397.187 98.905,396.907 100.58,396.907 C102.25,396.907 103.721,397.028 104.988,397.286 C106.261,397.535 107.269,397.803 108.02,398.081 L106.852,402.892 C106.151,402.614 105.371,402.396 104.511,402.241 C103.646,402.087 102.542,402.008 101.206,402.008 C100.007,402.008 98.905,402.191 97.9,402.555 C96.896,402.917 96.026,403.509 95.286,404.324 C94.55,405.148 93.979,406.207 93.571,407.49 C93.169,408.772 92.965,410.327 92.965,412.177 C92.965,413.927 93.164,415.442 93.551,416.705 C93.944,417.982 94.486,419.026 95.182,419.841 C95.877,420.666 96.698,421.272 97.627,421.66 C98.566,422.048 99.561,422.247 100.619,422.247 C101.345,422.247 102.056,422.157 102.751,421.979 C103.447,421.799 104.034,421.521 104.511,421.153 L104.511,415.641 L98.194,414.98 L98.194,411.501" id="Fill-8" fill="#FFFFFF"></path>
            <path d="M141.678,415.686 L147.951,415.686 L145.779,409.159 L144.899,404.563 L144.69,404.563 L143.811,409.204 L141.678,415.686 L141.678,415.686 Z M149.203,420.283 L140.218,420.283 L138,426.765 L132.27,426.765 L142.807,397.286 L147.032,397.286 L157.568,426.765 L151.545,426.765 L149.203,420.283 L149.203,420.283 Z" id="Fill-9" fill="#FFFFFF"></path>
            <path d="M190.139,402.176 C189.552,402.176 188.976,402.191 188.404,402.221 C187.832,402.246 187.395,402.296 187.087,402.385 L187.087,410.875 L189.513,410.875 C191.103,410.875 192.37,410.513 193.32,409.786 C194.264,409.065 194.741,407.873 194.741,406.192 C194.741,404.93 194.349,403.956 193.568,403.24 C192.788,402.534 191.645,402.176 190.139,402.176 L190.139,402.176 Z M181.361,397.793 C181.998,397.673 182.688,397.574 183.429,397.475 C184.169,397.375 184.905,397.306 185.646,397.241 C186.381,397.187 187.102,397.147 187.798,397.122 C188.494,397.087 189.135,397.077 189.722,397.077 C191.088,397.077 192.435,397.196 193.757,397.455 C195.079,397.703 196.267,398.136 197.311,398.758 C198.354,399.364 199.195,400.208 199.82,401.276 C200.447,402.355 200.76,403.697 200.76,405.313 C200.76,407.714 200.204,409.662 199.09,411.168 C197.972,412.674 196.48,413.718 194.612,414.304 L196.66,415.596 L203.35,426.765 L196.749,426.765 L190.099,415.308 L187.087,414.761 L187.087,426.765 L181.361,426.765 L181.361,397.793 L181.361,397.793 Z" id="Fill-10" fill="#FFFFFF"></path>
            <path d="M234.874,416 L237.012,409.58 L237.885,405 L238.104,405 L238.979,409.535 L241.156,416 L234.874,416 L234.874,416 Z M240.23,397 L236.007,397 L225.47,427 L231.195,427 L233.412,420 L242.408,420 L244.744,427 L250.769,427 L240.23,397 L240.23,397 Z" id="Fill-11" fill="#FFFFFF"></path>
            <path d="M284.348,411.501 L295.263,411.501 L295.263,424.542 C294.09,425.527 292.688,426.233 291.058,426.68 C289.427,427.127 287.816,427.347 286.227,427.347 C284.357,427.347 282.628,427.058 281.027,426.471 C279.417,425.885 278.035,424.971 276.862,423.737 C275.689,422.485 274.775,420.91 274.099,418.986 C273.433,417.063 273.096,414.771 273.096,412.127 C273.096,409.373 273.492,407.027 274.287,405.079 C275.083,403.141 276.127,401.569 277.429,400.356 C278.722,399.149 280.183,398.261 281.792,397.723 C283.413,397.187 285.063,396.907 286.733,396.907 C288.403,396.907 289.875,397.028 291.138,397.286 C292.41,397.535 293.423,397.803 294.169,398.081 L292.995,402.892 C292.3,402.614 291.524,402.396 290.659,402.241 C289.795,402.087 288.691,402.008 287.359,402.008 C286.156,402.008 285.063,402.191 284.059,402.555 C283.056,402.917 282.181,403.509 281.445,404.324 C280.699,405.148 280.133,406.207 279.725,407.49 C279.317,408.772 279.119,410.327 279.119,412.177 C279.119,413.927 279.317,415.442 279.706,416.705 C280.093,417.982 280.641,419.026 281.336,419.841 C282.031,420.666 282.846,421.272 283.781,421.66 C284.716,422.048 285.71,422.247 286.773,422.247 C287.499,422.247 288.204,422.157 288.9,421.979 C289.605,421.799 290.184,421.521 290.659,421.153 L290.659,415.641 L284.348,414.98 L284.348,411.501" id="Fill-12" fill="#FFFFFF"></path>
            <polyline id="Fill-13" fill="#FFFFFF" points="322.608 397.494 339.955 397.494 339.955 402.594 328.334 402.594 328.334 409.403 338.911 409.403 338.911 414.514 328.334 414.514 328.334 421.66 340.164 421.66 340.164 426.765 322.608 426.765 322.608 397.494"></polyline>
            <polyline id="Fill-14" fill="#CCCDC9" points="150.282 458.113 153.334 443.539 163.851 443.539 163.503 445.2 154.934 445.2 153.98 449.731 162.33 449.731 161.982 451.392 153.632 451.392 152.578 456.462 161.753 456.462 161.406 458.113 150.282 458.113"></polyline>
            <path d="M170.034,453.4 L171.942,453.221 L171.923,453.728 C171.923,454.295 172.052,454.813 172.311,455.279 C172.569,455.746 172.997,456.104 173.593,456.362 C174.189,456.611 174.9,456.74 175.72,456.74 C176.888,456.74 177.778,456.481 178.389,455.975 C179,455.468 179.309,454.882 179.309,454.225 C179.309,453.769 179.145,453.352 178.821,452.973 C178.488,452.604 177.584,452.098 176.108,451.462 C174.959,450.965 174.18,450.586 173.761,450.319 C173.105,449.892 172.623,449.424 172.311,448.917 C171.998,448.41 171.843,447.823 171.843,447.178 C171.843,446.433 172.047,445.756 172.459,445.149 C172.872,444.543 173.474,444.085 174.264,443.768 C175.054,443.449 175.949,443.291 176.943,443.291 C178.131,443.291 179.129,443.489 179.944,443.888 C180.759,444.284 181.352,444.812 181.719,445.477 C182.087,446.144 182.271,446.771 182.271,447.377 C182.271,447.436 182.266,447.536 182.261,447.675 L180.382,447.823 C180.382,447.416 180.347,447.088 180.273,446.86 C180.139,446.452 179.935,446.113 179.656,445.835 C179.378,445.558 178.995,445.339 178.508,445.169 C178.021,445.001 177.474,444.911 176.873,444.911 C175.814,444.911 174.99,445.149 174.397,445.627 C173.945,445.995 173.722,446.472 173.722,447.078 C173.722,447.436 173.816,447.754 174,448.043 C174.184,448.32 174.522,448.599 175.004,448.867 C175.348,449.056 176.167,449.444 177.459,450.011 C178.508,450.478 179.229,450.836 179.627,451.104 C180.159,451.451 180.566,451.88 180.849,452.387 C181.132,452.883 181.277,453.451 181.277,454.086 C181.277,454.872 181.038,455.607 180.556,456.272 C180.074,456.939 179.413,457.446 178.563,457.814 C177.713,458.182 176.744,458.361 175.651,458.361 C174,458.361 172.653,458.002 171.609,457.286 C170.566,456.562 170.039,455.27 170.034,453.4" id="Fill-15" fill="#CCCDC9"></path>
            <polyline id="Fill-16" fill="#CCCDC9" points="192.459 458.113 195.154 445.2 190.373 445.2 190.72 443.539 202.192 443.539 201.844 445.2 197.102 445.2 194.408 458.113 192.459 458.113"></polyline>
            <polyline id="Fill-17" fill="#CCCDC9" points="207.102 458.113 207.53 456.074 209.567 456.074 209.13 458.113 207.102 458.113"></polyline>
            <path d="M224.089,458.113 C224.277,457.248 224.536,456.521 224.863,455.936 C225.191,455.349 225.629,454.792 226.166,454.266 C226.712,453.737 227.756,452.854 229.307,451.611 C230.251,450.865 230.897,450.31 231.235,449.951 C231.733,449.434 232.1,448.927 232.318,448.43 C232.478,448.092 232.548,447.724 232.548,447.326 C232.548,446.661 232.309,446.094 231.842,445.627 C231.364,445.159 230.788,444.921 230.092,444.921 C229.416,444.921 228.819,445.159 228.303,445.637 C227.796,446.104 227.428,446.869 227.209,447.913 L225.45,447.654 C225.629,446.362 226.126,445.349 226.961,444.604 C227.786,443.857 228.83,443.48 230.063,443.48 C230.897,443.48 231.644,443.648 232.318,443.997 C232.984,444.345 233.491,444.821 233.829,445.448 C234.168,446.074 234.336,446.71 234.336,447.377 C234.336,448.34 233.998,449.275 233.303,450.169 C232.885,450.727 231.634,451.82 229.564,453.46 C228.681,454.166 228.014,454.741 227.587,455.189 C227.149,455.637 226.822,456.063 226.604,456.462 L233.123,456.462 L232.775,458.113 L224.089,458.113" id="Fill-18" fill="#CCCDC9"></path>
            <path d="M243.055,453.788 C243.055,454.683 243.204,455.379 243.503,455.886 C243.909,456.581 244.506,456.929 245.301,456.929 C245.997,456.929 246.633,456.611 247.2,455.985 C248.024,455.1 248.641,453.798 249.059,452.088 C249.467,450.368 249.675,448.967 249.675,447.884 C249.675,446.84 249.477,446.084 249.078,445.617 C248.671,445.149 248.145,444.921 247.488,444.921 C247.011,444.921 246.563,445.041 246.156,445.289 C245.738,445.537 245.341,445.955 244.964,446.552 C244.427,447.396 243.959,448.648 243.562,450.328 C243.224,451.76 243.055,452.913 243.055,453.788 L243.055,453.788 Z M241.315,453.331 C241.315,452.098 241.504,450.846 241.872,449.572 C242.239,448.301 242.646,447.287 243.094,446.522 C243.552,445.756 244.02,445.159 244.496,444.732 C244.983,444.305 245.461,443.987 245.928,443.788 C246.395,443.578 246.911,443.48 247.479,443.48 C248.592,443.48 249.526,443.897 250.271,444.723 C251.017,445.548 251.385,446.75 251.385,448.311 C251.385,449.921 251.127,451.512 250.609,453.093 C250.004,454.961 249.158,456.362 248.064,457.297 C247.229,458.002 246.285,458.361 245.212,458.361 C244.119,458.361 243.194,457.934 242.448,457.077 C241.693,456.214 241.315,454.972 241.315,453.331 L241.315,453.331 Z" id="Fill-19" fill="#CCCDC9"></path>
            <path d="M261.753,458.113 L264.059,447.108 C263.065,447.894 261.673,448.519 259.864,448.987 L260.202,447.356 C261.097,446.998 261.981,446.531 262.856,445.955 C263.721,445.378 264.378,444.871 264.814,444.443 C265.083,444.175 265.332,443.857 265.57,443.48 L266.614,443.48 L263.563,458.113 L261.753,458.113" id="Fill-20" fill="#CCCDC9"></path>
            <path d="M281.027,452.804 L282.3,446.721 L276.872,452.804 L281.027,452.804 L281.027,452.804 Z M279.914,458.113 L280.699,454.395 L274.755,454.395 L275.133,452.614 L283.294,443.539 L284.765,443.539 L282.827,452.804 L284.874,452.804 L284.547,454.395 L282.498,454.395 L281.713,458.113 L279.914,458.113 L279.914,458.113 Z" id="Fill-21" fill="#CCCDC9"></path>
        </g>
    </g>
</svg>