<svg xmlns="http://www.w3.org/2000/svg" xmlns:xlink="http://www.w3.org/1999/xlink" version="1.1" x="0px" y="0px" viewBox="0 0 91 113.75" enable-background="new 0 0 91 91" xml:space="preserve"><g><path d="M6.726,67.072c1.193,0,2.16-0.967,2.16-2.16V50.83h6.619v14.082c0,0.443,0.357,0.801,0.799,0.801H37.14l7.631,9.314   c0.152,0.186,0.381,0.293,0.619,0.293h23.816c0.441,0,0.801-0.357,0.801-0.799V62.721h6.434v6.914c0,0.441,0.357,0.801,0.801,0.801   h6.637c0.332,0,0.629-0.205,0.746-0.516c8.32-21.711,0.281-35.094-0.066-35.654c-0.145-0.234-0.402-0.377-0.68-0.377h-6.637   c-0.443,0-0.801,0.357-0.801,0.799v6.201h-6.434v-8.045c0-0.441-0.359-0.799-0.801-0.799h-10.98v-5.977   c0-0.443-0.359-0.801-0.803-0.801h-9.932v-5.934h8.172c1.768,0,3.203-1.432,3.203-3.199s-1.436-3.201-3.203-3.201H26.315   c-1.768,0-3.201,1.434-3.201,3.201s1.434,3.199,3.201,3.199h8.5v5.934h-8.5c-0.443,0-0.801,0.357-0.801,0.801v5.977h-9.211   c-0.441,0-0.799,0.357-0.799,0.799V46.51H8.886V32.857c0-1.193-0.967-2.16-2.16-2.16s-2.16,0.967-2.16,2.16v32.055   C4.565,66.105,5.532,67.072,6.726,67.072z M39.136,19.334h4.035v5.934h-4.035V19.334z M36.067,45.734l6.852-11.955   c0.594-1.035,1.918-1.396,2.947-0.799c1.037,0.592,1.395,1.912,0.801,2.947l-4.998,8.721h7.213c0.785,0,1.508,0.426,1.889,1.113   c0.383,0.686,0.359,1.525-0.055,2.189l-7.143,11.438c-0.412,0.656-1.115,1.018-1.834,1.018c-0.391,0-0.787-0.105-1.143-0.328   c-1.014-0.633-1.32-1.965-0.689-2.977l5.08-8.135h-7.045c-0.771,0-1.484-0.408-1.869-1.076   C35.687,47.225,35.685,46.402,36.067,45.734z"/></g></svg>
