<svg xmlns="http://www.w3.org/2000/svg" xmlns:xlink="http://www.w3.org/1999/xlink" version="1.1" x="0px" y="0px" viewBox="0 0 100 125" enable-background="new 0 0 100 100" xml:space="preserve"><g><path d="M51.706,5.395C26.798,5.395,6.601,25.589,6.601,50.5c0,24.91,20.197,45.105,45.105,45.105   c24.913,0,45.105-20.195,45.105-45.105C96.812,25.589,76.619,5.395,51.706,5.395z M51.706,81.718   c-17.242,0-31.215-13.978-31.215-31.218c0-17.242,13.973-31.218,31.215-31.218s31.22,13.976,31.22,31.218   C82.926,67.74,68.948,81.718,51.706,81.718z"/><path d="M51.706,27.722c-12.561,0-22.779,10.219-22.779,22.778s10.219,22.776,22.779,22.776c12.56,0,22.778-10.217,22.778-22.776   S64.266,27.722,51.706,27.722z M51.706,29.843c5.689,0,10.849,2.313,14.591,6.046c-0.158-0.143-0.378-0.187-0.572-0.104   l-9.663,4.202l-3.862-9.803c-0.157-0.404-0.825-0.404-0.986,0l-3.858,9.803l-9.662-4.202c-0.195-0.083-0.42-0.039-0.572,0.106   C40.857,32.155,46.017,29.843,51.706,29.843z M55.029,55.351c0-0.846,0.684-1.529,1.529-1.529s1.529,0.684,1.529,1.529   c0,0.845-0.684,1.529-1.529,1.529S55.029,56.195,55.029,55.351z M56.559,47.179c-0.846,0-1.529-0.684-1.529-1.529   s0.684-1.531,1.529-1.531s1.529,0.686,1.529,1.531S57.404,47.179,56.559,47.179z M51.706,39.805c-1.186,0-2.309,0.24-3.377,0.597   l3.377-8.576l3.377,8.576C54.019,40.045,52.896,39.805,51.706,39.805z M46.854,56.88c-0.841,0-1.528-0.685-1.528-1.529   c0-0.846,0.688-1.529,1.528-1.529c0.85,0,1.533,0.684,1.533,1.529C48.387,56.195,47.703,56.88,46.854,56.88z M46.854,47.179   c-0.841,0-1.528-0.684-1.528-1.529s0.688-1.531,1.528-1.531c0.85,0,1.533,0.686,1.533,1.531S47.703,47.179,46.854,47.179z    M42.175,45.743l-3.671-8.447l8.444,3.674C44.882,42.003,43.212,43.675,42.175,45.743z M41.607,53.877L33.034,50.5l8.573-3.378   c-0.356,1.068-0.597,2.191-0.597,3.378C41.011,51.688,41.251,52.811,41.607,53.877z M42.175,55.257   c1.037,2.068,2.707,3.74,4.773,4.774l-8.444,3.673L42.175,55.257z M51.706,61.193c1.189,0,2.313-0.238,3.377-0.597l-3.377,8.577   l-3.377-8.577C49.397,60.955,50.521,61.193,51.706,61.193z M61.237,55.257l3.675,8.447l-8.449-3.673   C58.531,58.997,60.205,57.325,61.237,55.257z M61.805,47.122l8.577,3.378l-8.577,3.377c0.356-1.066,0.597-2.189,0.597-3.377   C62.401,49.313,62.161,48.19,61.805,47.122z M61.237,45.743c-1.032-2.068-2.706-3.74-4.774-4.773l8.449-3.674L61.237,45.743z    M31.05,50.5c0-5.689,2.312-10.849,6.049-14.589c-0.145,0.156-0.189,0.377-0.107,0.572l4.202,9.664l-9.8,3.859   c-0.203,0.081-0.336,0.275-0.336,0.493s0.133,0.415,0.336,0.493l9.8,3.86l-4.202,9.663c-0.082,0.194-0.037,0.416,0.107,0.571   C33.366,61.349,31.05,56.189,31.05,50.5z M51.706,71.155c-5.689,0-10.849-2.313-14.586-6.046c0.152,0.145,0.377,0.187,0.572,0.104   l9.662-4.2l3.858,9.803c0.079,0.203,0.278,0.335,0.493,0.335c0.22,0,0.414-0.132,0.493-0.335l3.862-9.803l9.663,4.2   c0.194,0.083,0.414,0.041,0.572-0.104C62.555,68.843,57.396,71.155,51.706,71.155z M66.317,65.088   c0.145-0.155,0.187-0.377,0.104-0.571l-4.202-9.663l9.805-3.86c0.203-0.078,0.335-0.275,0.335-0.493s-0.132-0.412-0.335-0.493   l-9.805-3.859l4.202-9.664c0.083-0.195,0.041-0.416-0.104-0.572c3.733,3.74,6.046,8.899,6.046,14.589S70.051,61.347,66.317,65.088z   "/><path d="M51.706,21.27c-16.115,0-29.23,13.113-29.23,29.23s13.115,29.23,29.23,29.23c16.119,0,29.23-13.113,29.23-29.23   S67.825,21.27,51.706,21.27z M51.706,78.67c-15.531,0-28.17-12.637-28.17-28.17s12.639-28.17,28.17-28.17   c15.535,0,28.17,12.637,28.17,28.17S67.241,78.67,51.706,78.67z"/></g></svg>
