<?xml version="1.0" encoding="UTF-8" standalone="no"?>
<svg width="85px" height="64px" viewBox="0 0 85 64" version="1.1" xmlns="http://www.w3.org/2000/svg" xmlns:xlink="http://www.w3.org/1999/xlink">
    <!-- Generator: Sketch 43.2 (39069) - http://www.bohemiancoding.com/sketch -->
    <title>Shape</title>
    <desc>Created with Sketch.</desc>
    <defs></defs>
    <g id="Page-1" stroke="none" stroke-width="1" fill="none" fill-rule="evenodd">
        <g id="mechanical" fill-rule="nonzero" fill="#484848">
            <path d="M2.726,55.072 C3.919,55.072 4.886,54.105 4.886,52.912 L4.886,38.83 L11.505,38.83 L11.505,52.912 C11.505,53.355 11.862,53.713 12.304,53.713 L33.14,53.713 L40.771,63.027 C40.923,63.213 41.152,63.32 41.39,63.32 L65.206,63.32 C65.647,63.32 66.007,62.963 66.007,62.521 L66.007,50.721 L72.441,50.721 L72.441,57.635 C72.441,58.076 72.798,58.436 73.242,58.436 L79.879,58.436 C80.211,58.436 80.508,58.231 80.625,57.92 C88.945,36.209 80.906,22.826 80.559,22.266 C80.414,22.032 80.157,21.889 79.879,21.889 L73.242,21.889 C72.799,21.889 72.441,22.246 72.441,22.688 L72.441,28.889 L66.007,28.889 L66.007,20.844 C66.007,20.403 65.648,20.045 65.206,20.045 L54.226,20.045 L54.226,14.068 C54.226,13.625 53.867,13.267 53.423,13.267 L43.491,13.267 L43.491,7.333 L51.663,7.333 C53.431,7.333 54.866,5.901 54.866,4.134 C54.866,2.367 53.43,0.933 51.663,0.933 L22.315,0.933 C20.547,0.933 19.114,2.367 19.114,4.134 C19.114,5.901 20.548,7.333 22.315,7.333 L30.815,7.333 L30.815,13.267 L22.315,13.267 C21.872,13.267 21.514,13.624 21.514,14.068 L21.514,20.045 L12.303,20.045 C11.862,20.045 11.504,20.402 11.504,20.844 L11.504,34.51 L4.886,34.51 L4.886,20.857 C4.886,19.664 3.919,18.697 2.726,18.697 C1.533,18.697 0.566,19.664 0.566,20.857 L0.566,52.912 C0.565,54.105 1.532,55.072 2.726,55.072 Z M35.136,7.334 L39.171,7.334 L39.171,13.268 L35.136,13.268 L35.136,7.334 L35.136,7.334 Z M32.067,33.734 L38.919,21.779 C39.513,20.744 40.837,20.383 41.866,20.98 C42.903,21.572 43.261,22.892 42.667,23.927 L37.669,32.648 L44.882,32.648 C45.667,32.648 46.39,33.074 46.771,33.761 C47.154,34.447 47.13,35.286 46.716,35.95 L39.573,47.388 C39.161,48.044 38.458,48.406 37.739,48.406 C37.348,48.406 36.952,48.301 36.596,48.078 C35.582,47.445 35.276,46.113 35.907,45.101 L40.987,36.966 L33.942,36.966 C33.171,36.966 32.458,36.558 32.073,35.89 C31.687,35.225 31.685,34.402 32.067,33.734 Z" id="Shape"></path>
        </g>
    </g>
</svg>
